HIERARCHY
ROOT reference
{
  OFFSET 0 0 0
  CHANNELS 6 Xposition Yposition Zposition Zrotation Xrotation Yrotation
  JOINT Hips
  {
    OFFSET 18.9463 95.359 90.1872
    CHANNELS 6 Xposition Yposition Zposition Zrotation Xrotation Yrotation
    JOINT Spine
    {
      OFFSET 0 8.22665 0
      CHANNELS 6 Xposition Yposition Zposition Zrotation Xrotation Yrotation
      JOINT Spine1
      {
        OFFSET 0 24.451 0
        CHANNELS 6 Xposition Yposition Zposition Zrotation Xrotation Yrotation
        JOINT Neck
        {
          OFFSET 0 24.3506 2.21369
          CHANNELS 6 Xposition Yposition Zposition Zrotation Xrotation Yrotation
          JOINT Head
          {
            OFFSET 0 14.0455 -2.0065
            CHANNELS 6 Xposition Yposition Zposition Zrotation Xrotation Yrotation
            End Site
            {
              OFFSET 0 25.0812 0
            }
          }
        }
        JOINT LeftShoulder
        {
          OFFSET 4.0594 22.2558 -0.272799
          CHANNELS 6 Xposition Yposition Zposition Zrotation Xrotation Yrotation
          JOINT LeftArm
          {
            OFFSET 12.0298 0 0
            CHANNELS 6 Xposition Yposition Zposition Zrotation Xrotation Yrotation
            JOINT LeftForeArm
            {
              OFFSET 31.2689 0 0
              CHANNELS 6 Xposition Yposition Zposition Zrotation Xrotation Yrotation
              JOINT LeftHand
              {
                OFFSET 28.0275 0 0
                CHANNELS 6 Xposition Yposition Zposition Zrotation Xrotation Yrotation
                End Site
                {
                  OFFSET 15.0487 0 0
                }
              }
            }
          }
        }
        JOINT RightShoulder
        {
          OFFSET -3.96464 22.2558 -0.272799
          CHANNELS 6 Xposition Yposition Zposition Zrotation Xrotation Yrotation
          JOINT RightArm
          {
            OFFSET -12.0298 0 0
            CHANNELS 6 Xposition Yposition Zposition Zrotation Xrotation Yrotation
            JOINT RightForeArm
            {
              OFFSET -31.2689 0 0
              CHANNELS 6 Xposition Yposition Zposition Zrotation Xrotation Yrotation
              JOINT RightHand
              {
                OFFSET -28.0275 0 0
                CHANNELS 6 Xposition Yposition Zposition Zrotation Xrotation Yrotation
                End Site
                {
                  OFFSET -15.0487 0 0
                }
              }
            }
          }
        }
      }
    }
    JOINT LeftUpLeg
    {
      OFFSET 10.0325 0 0
      CHANNELS 6 Xposition Yposition Zposition Zrotation Xrotation Yrotation
      JOINT LeftLeg
      {
        OFFSET 0 -38.4033 0
        CHANNELS 6 Xposition Yposition Zposition Zrotation Xrotation Yrotation
        JOINT LeftFoot
        {
          OFFSET 0 -44.1642 0
          CHANNELS 6 Xposition Yposition Zposition Zrotation Xrotation Yrotation
          JOINT LeftToeBase
          {
            OFFSET 0 -6.52112 15.0487
            CHANNELS 6 Xposition Yposition Zposition Zrotation Xrotation Yrotation
            End Site
            {
              OFFSET 0 0 4.013
            }
          }
        }
      }
    }
    JOINT RightUpLeg
    {
      OFFSET -10.0325 0 0
      CHANNELS 6 Xposition Yposition Zposition Zrotation Xrotation Yrotation
      JOINT RightLeg
      {
        OFFSET 0 -38.4033 0
        CHANNELS 6 Xposition Yposition Zposition Zrotation Xrotation Yrotation
        JOINT RightFoot
        {
          OFFSET 0 -44.1642 0
          CHANNELS 6 Xposition Yposition Zposition Zrotation Xrotation Yrotation
          JOINT RightToeBase
          {
            OFFSET 0 -6.52112 15.0487
            CHANNELS 6 Xposition Yposition Zposition Zrotation Xrotation Yrotation
            End Site
            {
              OFFSET 0 0 4.013
            }
          }
        }
      }
    }
  }
}
MOTION
Frames:	6
Frame Time:	0.004
0 0 0 0 0 -0 -16.2622 84.362 -204.768 0.197075 -2.26541 0.431695 3.55271e-015 8.22665 -2.84217e-014 1.3312 0.281127 0.579186 -1.77636e-015 24.451 2.84217e-014 -2.57395 3.3023 0.656562 -1.77636e-015 24.3506 2.21369 5.58582 19.8752 9.41801 7.10543e-015 14.0455 -2.0065 -8.83303 2.23903 8.91856 4.0594 22.2558 -0.272799 17.6801 0.894953 -1.31439 12.0298 -5.68434e-014 -2.84217e-014 -20.7532 1.85046 1.1999 31.2689 1.42109e-014 0 8.38584 -5.34562 -10.6156 28.0275 0 0 27.3824 -3.06412 6.18158 -3.96464 22.2558 -0.272799 -13.8157 1.0745 -0.031611 -12.0298 -1.42109e-014 0 19.2407 1.67421 3.79772 -31.2689 0 0 -2.14839 -0.628312 3.13674 -28.0275 -2.84217e-014 0 -5.40023 -0.537243 -0.682538 10.0325 1.42109e-014 -2.84217e-014 -3.53983 5.71896 -1.45904 1.77636e-015 -38.4033 0 -3.3578 12.6896 -4.41142 0 -44.1642 -2.84217e-014 8.12868 -15.0227 21.294 0 -6.52112 15.0487 -1.2424e-017 -4.96962e-017 -0 -10.0325 0 -2.84217e-014 -4.80454 -11.3813 0.136489 0 -38.4033 2.84217e-014 -1.58938 40.2455 0.964814 3.55271e-015 -44.1642 -2.84217e-014 10.2178 -11.9357 -5.9533 0 -6.52112 15.0487 7.95139e-016 1.59028e-015 -1.59028e-015 
0 0 0 0 0 -0 -16.1795 84.3222 -204.687 0.276829 -2.33826 0.433935 1.77636e-015 8.22665 0 1.26923 0.449408 0.552057 0 24.451 2.84217e-014 -2.59428 3.34782 0.632868 -3.55271e-015 24.3506 2.21369 5.55044 19.9611 9.41544 0 14.0455 -2.0065 -8.8717 1.98558 8.89506 4.0594 22.2558 -0.272799 17.6091 0.902315 -1.2699 12.0298 0 2.84217e-014 -20.8271 1.71241 1.26222 31.2689 0 0 8.63682 -5.70342 -10.9603 28.0275 0 0 27.3235 -3.3111 6.45121 -3.96464 22.2558 -0.272799 -13.7279 1.21274 -0.124123 -12.0298 -1.42109e-014 0 19.3694 1.72938 3.77581 -31.2689 -2.84217e-014 -2.84217e-014 -2.25062 -0.534003 3.584 -28.0275 2.84217e-014 0 -5.19857 -0.427886 -0.785635 10.0325 0 0 -3.65293 5.85152 -1.42528 0 -38.4033 0 -3.37954 12.6957 -4.49974 7.10543e-015 -44.1642 0 8.15734 -15.1383 21.3773 0 -6.52112 15.0487 0 0 -0 -10.0325 0 2.84217e-014 -4.96301 -11.8777 -6e-005 0 -38.4033 -2.84217e-014 -1.71406 41.2342 1.07286 0 -44.1642 0 10.3555 -11.5812 -5.86907 -1.42109e-014 -6.52112 15.0487 3.97569e-016 -3.18055e-015 1.59028e-015 
0 0 0 0 0 -0 -16.0925 84.2834 -204.608 0.365323 -2.39625 0.428396 3.55271e-015 8.22665 0 1.21853 0.605567 0.519885 0 24.451 0 -2.6556 3.39619 0.605082 -1.77636e-015 24.3506 2.21369 5.53313 19.9001 9.44198 7.10543e-015 14.0455 -2.0065 -8.87095 1.97324 8.91803 4.0594 22.2558 -0.272799 17.568 0.912757 -1.22757 12.0298 0 0 -20.9378 1.62452 1.36413 31.2689 -1.42109e-014 -2.84217e-014 9.11761 -5.86736 -11.23 28.0275 0 0 26.4377 -3.47083 6.40636 -3.96464 22.2558 -0.272799 -13.6387 1.30128 -0.182931 -12.0298 0 0 19.547 1.85609 3.69221 -31.2689 4.26326e-014 0 -2.44452 -0.38248 4.05495 -28.0275 1.42109e-014 0 -4.74579 -0.264382 -0.75986 10.0325 0 -2.84217e-014 -3.78933 5.97756 -1.41833 1.77636e-015 -38.4033 -2.84217e-014 -3.39744 12.6849 -4.53316 -7.10543e-015 -44.1642 -2.84217e-014 8.29413 -15.1371 21.4252 -7.10543e-015 -6.52112 15.0487 2.48481e-017 4.96962e-017 -0 -10.0325 0 0 -5.11855 -12.4572 -0.30186 0 -38.4033 -2.84217e-014 -2.02878 42.2942 1.19257 7.10543e-015 -44.1642 0 10.6053 -11.0663 -5.59262 0 -6.52112 15.0487 7.95139e-016 3.18055e-015 1.59028e-015 
0 0 0 0 0 -0 -16.005 84.2453 -204.527 0.449541 -2.45745 0.425091 0 8.22665 -2.84217e-014 1.15774 0.753041 0.493378 1.77636e-015 24.451 0 -2.66751 3.454 0.581464 -3.55271e-015 24.3506 2.21369 5.4385 19.9079 9.44324 0 14.0455 -2.0065 -8.84348 1.84056 8.90971 4.0594 22.2558 -0.272799 17.4471 0.95881 -1.20512 12.0298 2.84217e-014 2.84217e-014 -20.9639 1.46301 1.4419 31.2689 4.26326e-014 -2.84217e-014 9.2905 -6.57333 -11.6665 28.0275 0 2.84217e-014 26.7689 -3.96018 7.02321 -3.96464 22.2558 -0.272799 -13.5875 1.40989 -0.266007 -12.0298 1.42109e-014 0 19.6876 1.94797 3.64141 -31.2689 2.84217e-014 0 -2.52858 -0.284379 4.54986 -28.0275 -4.26326e-014 0 -4.51123 -0.153879 -0.758988 10.0325 -1.42109e-014 -2.84217e-014 -3.93082 6.11249 -1.36311 0 -38.4033 2.84217e-014 -3.38982 12.6481 -4.43009 0 -44.1642 0 8.52046 -14.8695 21.2254 0 -6.52112 15.0487 -4.96962e-017 0 -0 -10.0325 1.42109e-014 0 -5.33305 -13.0518 -0.067343 -7.10543e-015 -38.4033 2.84217e-014 -1.72285 43.4253 0.852683 -7.10543e-015 -44.1642 2.84217e-014 10.7032 -10.589 -5.63651 0 -6.52112 15.0487 3.97569e-016 3.18055e-015 -0 
0 0 0 0 0 -0 -15.9231 84.2052 -204.446 0.534054 -2.52073 0.446037 1.77636e-015 8.22665 2.84217e-014 1.08439 0.902568 0.45806 -1.77636e-015 24.451 0 -2.68433 3.52908 0.54942 -1.77636e-015 24.3506 2.21369 5.43477 19.9377 9.43241 7.10543e-015 14.0455 -2.0065 -8.87897 1.63039 8.87922 4.0594 22.2558 -0.272799 17.38 0.927802 -1.18835 12.0298 2.84217e-014 0 -21.0552 1.3295 1.55138 31.2689 2.84217e-014 0 9.7282 -6.68924 -11.8964 28.0275 -2.84217e-014 -2.84217e-014 26.0826 -4.10223 6.82502 -3.96464 22.2558 -0.272799 -13.5206 1.51103 -0.366961 -12.0298 1.42109e-014 0 19.8209 2.04076 3.59153 -31.2689 0 2.84217e-014 -2.64619 -0.060738 5.03947 -28.0275 0 -2.84217e-014 -4.03528 0.082155 -0.731603 10.0325 -1.42109e-014 0 -4.0498 6.25201 -1.36281 0 -38.4033 0 -3.41335 12.6208 -4.4429 0 -44.1642 -2.84217e-014 8.52366 -14.967 21.2057 0 -6.52112 15.0487 -4.96962e-017 -9.93923e-017 -1.59028e-015 -10.0325 -1.42109e-014 0 -5.48669 -13.5935 -0.288925 -7.10543e-015 -38.4033 0 -1.96562 44.4683 0.977722 7.10543e-015 -44.1642 0 10.8705 -10.1581 -5.45764 0 -6.52112 15.0487 -3.97569e-016 0 1.59028e-015 
0 0 0 0 0 -0 -15.8395 84.1655 -204.364 0.625182 -2.58692 0.464036 -1.77636e-015 8.22665 0 1.03151 1.06941 0.419048 -3.55271e-015 24.451 0 -2.75631 3.5715 0.514679 -5.32907e-015 24.3506 2.21369 5.44248 19.7762 9.42574 7.10543e-015 14.0455 -2.0065 -8.84719 1.87176 8.88657 4.0594 22.2558 -0.272799 17.3695 0.927794 -1.16013 12.0298 -2.84217e-014 0 -21.167 1.16962 1.64134 31.2689 0 -2.84217e-014 10.0285 -7.18802 -12.2801 28.0275 0 2.84217e-014 26.0203 -4.44229 7.2552 -3.96464 22.2558 -0.272799 -13.4207 1.63322 -0.458834 -12.0298 0 0 19.9379 2.21274 3.58742 -31.2689 0 0 -2.73515 -0.004208 5.50033 -28.0275 0 0 -3.69243 0.150104 -0.706634 10.0325 0 0 -4.18881 6.43194 -1.63269 0 -38.4033 0 -3.47075 12.5002 -4.16093 -7.10543e-015 -44.1642 0 8.5609 -15.0434 21.1667 -7.10543e-015 -6.52112 15.0487 4.96962e-017 -1.98785e-016 -0 -10.0325 0 0 -5.66919 -14.1616 -0.601774 0 -38.4033 0 -2.34355 45.5729 1.47294 0 -44.1642 -2.84217e-014 11.0588 -9.72818 -5.40688 0 -6.52112 15.0487 -3.97569e-016 -3.18055e-015 3.18055e-015 
